<svg width="308" height="59" viewBox="0 0 308 59" fill="none" xmlns="http://www.w3.org/2000/svg">
<path d="M0.0103867 21.376C0.0971945 17.7916 1.9298 15.5369 4.51475 13.8025C5.47928 13.1569 5.8458 12.4246 6.00013 11.3743C6.65601 6.98051 8.73939 3.46352 13.2341 1.71949C15.713 0.755931 18.2497 1.12208 20.6803 2.06637C21.5291 2.39398 22.1367 2.3458 22.8987 1.76767C26.6507 -1.05555 30.7404 -0.448514 33.5471 3.24191C35.9681 6.42164 36.6433 9.67846 34.1066 13.0895C33.6725 13.6676 33.9426 14.0145 34.3091 14.4577C36.0742 16.5583 37.7718 18.7166 39.5851 20.769C40.3182 21.5977 40.1445 22.0409 39.344 22.6383C33.0842 27.3115 26.834 32.0041 20.6031 36.7159C19.9376 37.2169 19.6579 37.0242 19.2142 36.475C17.208 34.0083 15.1342 31.5801 13.1184 29.1134C12.694 28.5931 12.395 28.5449 11.7777 28.8243C7.24437 30.8767 3.67561 29.7301 1.28357 25.4712C0.483007 24.0933 -0.0667758 22.619 0.0103867 21.376ZM27.2102 14.2457C29.8241 14.3324 30.316 14.1494 31.9171 12.6077C34.531 10.0832 34.1934 6.20966 31.1165 3.3479C28.8209 1.21844 25.5994 1.49787 23.0916 4.14765C22.4647 4.8125 22.0885 4.8125 21.3072 4.40781C17.0344 2.18199 13.3016 2.69268 10.3887 5.97841C8.67188 7.92479 7.88096 10.2855 7.86167 12.8293C7.85203 13.7736 7.53373 14.2746 6.63672 14.7275C1.74654 17.1942 0.637332 21.6555 3.80099 25.8084C5.3346 27.8222 7.40834 28.5642 9.79073 27.5621C12.694 26.3384 15.549 24.9412 17.2659 22.1662C17.5263 21.7518 17.806 21.3953 18.3944 21.3471C21.9052 21.0581 23.8247 18.9671 24.7796 15.9609C25.2232 14.6119 25.773 13.7447 27.2102 14.2457ZM37.4053 21.3568C37.3185 21.2219 37.222 21.0195 37.0773 20.8557C35.6209 19.0731 34.1548 17.3002 32.708 15.5176C32.3511 15.084 31.975 15.0744 31.5313 15.3634C30.4703 16.0476 29.2357 16.2017 28.0107 16.2306C27.1427 16.2499 26.7375 16.539 26.4096 17.2906C25.1171 20.3161 22.9855 22.4841 19.4746 23.1201C19.0213 23.2068 18.7609 23.4573 18.5197 23.7849C17.6034 25.0568 16.4653 26.1071 15.0667 26.8779C14.353 27.2634 14.353 27.6295 14.8352 28.198C16.3785 30.0288 17.9024 31.8595 19.3975 33.7288C19.9858 34.4708 20.4874 34.4033 21.2011 33.8734C26.3614 29.971 31.5506 26.0975 36.7301 22.2143C37.0002 22.0024 37.3377 21.8193 37.4053 21.3568Z" fill="white"/>
<path d="M52.1819 53.2891C52.1819 53.2891 52.1713 53.2891 52.1819 53.2891C52.1713 53.2997 52.1713 53.2997 52.1819 53.2891Z" fill="white"/>
<path d="M56.7338 34.0083C56.1551 32.1775 55.2581 30.5106 54.1874 28.9304H54.1971C54.0524 28.834 53.9656 28.6991 53.9077 28.5449C53.8402 28.4775 53.6569 28.4775 53.7823 28.3137C53.7245 28.2173 53.6666 28.1306 53.6184 28.0343C53.3772 28.1113 53.4158 27.8801 53.3386 27.7837C53.3097 27.7452 53.2711 27.7163 53.2422 27.6777C52.9142 27.3983 52.6152 27.0803 52.3741 26.7142C52.3355 26.6756 52.3066 26.6467 52.268 26.6082C52.2005 26.5407 52.133 26.4733 52.0751 26.4155C52.0365 26.3866 52.0076 26.348 51.969 26.3191C51.6025 26.0782 51.2938 25.7795 51.0045 25.4519C50.9659 25.423 50.937 25.3845 50.8984 25.3556C50.7923 25.317 50.6958 25.2688 50.6572 25.1532C50.5994 25.0954 50.5415 25.0376 50.474 24.9798C50.474 24.9798 50.474 24.9798 50.4643 24.9798L50.4547 24.9701V24.9798C50.445 24.9701 50.4258 24.9701 50.4258 24.9509C50.2907 24.9605 50.1943 24.9027 50.1268 24.7774C49.9724 24.71 49.8374 24.6329 49.7409 24.4884V24.498C47.5129 22.9659 45.0919 21.8868 42.4394 21.3664C41.4074 21.1641 40.3753 21.0581 39.3336 21.0196L37.4914 22.3589C37.6168 22.3589 37.7422 22.3589 37.8676 22.3589C38.0315 22.3589 38.1955 22.3493 38.2727 22.5516C38.5717 23.361 39.1311 24.0162 39.5844 24.7389C40.0956 25.5675 39.9702 26.0301 39.1311 26.5118C38.5331 26.8587 37.8676 27.0803 37.231 27.3212C35.6298 27.9283 34.1348 28.728 32.8327 29.8554C31.2123 31.2525 30.9326 32.9388 31.9839 34.8659C32.3119 35.4729 32.6977 36.0414 33.0642 36.6292C33.2957 37.005 33.4597 37.4 33.5658 37.824C33.749 38.5756 33.4211 39.0092 32.6494 39.0381C32.0611 39.0573 31.5017 38.9032 30.9519 38.7201C29.9777 38.4021 29.1289 38.5467 28.473 39.356C27.7593 40.2425 27.6918 41.235 28.1644 42.2563C28.6466 43.2873 29.5437 43.8366 30.5661 44.2124C31.357 44.5014 32.1768 44.6556 33.016 44.7134C33.3921 44.7327 33.6719 44.8676 33.8069 45.2241C33.9323 45.571 33.7972 45.8408 33.5658 46.0913C33.0063 46.6887 32.3215 47.1512 31.8682 47.8546C31.1351 49.0012 31.357 49.7817 32.6012 50.3502C33.6333 50.8224 34.6653 50.6875 35.7167 50.4273C36.8162 50.1575 37.8483 49.7046 38.9093 49.3385C39.4397 49.1554 39.9702 48.9723 40.5393 48.9338C40.8576 48.9145 40.9541 49.0205 40.9058 49.3578C40.7419 50.3599 40.3464 51.2656 39.787 52.0943C39.4687 52.5568 39.1407 53.0193 38.9671 53.5589C38.5427 54.8597 38.9768 55.9196 39.8641 56.8542C39.9606 56.9506 40.1535 57.0277 40.1053 57.1818C40.0474 57.3553 39.8352 57.3071 39.6809 57.3264C39.0732 57.4035 38.4656 57.442 37.8483 57.442C32.119 57.2975 27.4506 55.0331 23.8915 50.5237C23.7275 50.3117 23.6793 50.0997 23.6986 49.8492C23.8143 48.4713 24.4509 47.315 25.2226 46.2069C25.5409 45.7444 25.8688 45.2819 25.9363 44.7038C26.0231 44.0004 25.8013 43.3933 25.3672 42.873C24.5185 41.8806 24.6535 40.8399 25.1743 39.7704C25.3769 39.3464 25.6759 38.9899 25.9749 38.6237C26.5825 37.8914 26.9394 37.0724 26.4957 36.1378C26.0424 35.1935 25.2129 34.7888 24.1809 34.7599C23.2163 34.731 22.3 34.9526 21.3837 35.2031C21.2487 35.2417 21.0944 35.3476 20.9786 35.2224C20.8918 35.1164 20.9979 34.9815 21.0365 34.8562C21.104 34.625 21.1812 34.3937 21.2583 34.1625L18.2683 36.3401C17.9403 38.0649 17.8632 39.8378 18.0368 41.6589C18.2394 43.798 18.7795 45.8311 19.6669 47.7775C20.5156 49.6661 21.6827 51.333 23.062 52.8747H23.0524C23.0813 52.9133 23.1199 52.9422 23.1488 52.9807C23.3417 53.1734 23.5346 53.3661 23.7275 53.5589C23.7661 53.5878 23.7951 53.6263 23.8336 53.6552C24.1905 53.9057 24.5088 54.1948 24.7982 54.5224C24.9621 54.5802 25.0875 54.6669 25.184 54.8115C25.3479 54.8693 25.4733 54.956 25.5698 55.1005C25.7338 55.1584 25.8688 55.2451 25.9556 55.3896V55.38C26.0135 55.4089 26.0713 55.4378 26.1196 55.4763C28.2705 56.9217 30.595 57.9141 33.1414 58.4152C34.945 58.7717 36.768 58.7717 38.6006 58.7717C41.6196 58.7717 44.4939 58.1358 47.2139 56.7964C47.9662 56.4303 48.6414 55.9388 49.3841 55.5727V55.5823C49.4805 55.4378 49.6156 55.3511 49.7699 55.2933C49.8663 55.1487 49.9917 55.062 50.1557 55.0042C50.2521 54.8597 50.3872 54.7729 50.5415 54.7151C50.6669 54.5417 50.8405 54.4357 51.0238 54.3297C51.0623 54.3008 51.0913 54.2623 51.1299 54.2333C51.4096 53.9057 51.7279 53.6167 52.0944 53.3661C52.1233 53.3372 52.1619 53.2987 52.1908 53.2698C52.2198 53.2409 52.2584 53.2023 52.2873 53.1734C52.5381 52.8169 52.8274 52.4989 53.1554 52.2099C53.1843 52.1713 53.2229 52.1424 53.2518 52.1039C53.3579 51.9208 53.464 51.7474 53.6376 51.6221C53.6955 51.4679 53.7823 51.333 53.927 51.2367C53.9849 51.0825 54.0717 50.9476 54.2164 50.8513C54.2742 50.6971 54.361 50.5526 54.5057 50.4658C54.8433 49.8684 55.2002 49.2903 55.5185 48.6833C56.3769 47.0549 56.9846 45.3494 57.3318 43.5379C57.3414 43.4993 57.38 43.4608 57.409 43.4222C57.4186 43.3548 57.4283 43.2777 57.4379 43.2103C57.3897 42.5069 57.5922 41.8227 57.6404 41.1193C57.7851 38.7105 57.4668 36.3401 56.7338 34.0083ZM23.4768 44.8483C22.9848 45.5035 22.5701 46.2069 22.2229 46.9489C22.1746 47.0645 22.1457 47.2379 22.001 47.2379C21.8178 47.2379 21.8178 47.0452 21.7695 46.92C20.8725 44.8676 20.371 42.7285 20.3227 40.5123C20.2359 39.7511 20.3613 39.0188 20.371 38.2769C20.371 38.0649 20.4481 37.9107 20.6603 37.8336C21.6827 37.4386 22.7244 37.1399 23.8143 37.0242C23.9687 37.005 24.1809 36.9375 24.258 37.082C24.3448 37.2362 24.1519 37.3615 24.0458 37.4771C23.1488 38.5563 22.5894 39.7704 22.5315 41.1964C22.4929 42.266 22.763 43.2295 23.4478 44.0582C23.6986 44.3376 23.6986 44.5496 23.4768 44.8483ZM49.4226 27.2538C49.5963 27.0032 49.7313 26.9936 49.9435 27.2056C52.3548 29.4989 53.9656 32.2643 54.8433 35.4633C54.8819 35.5982 54.9108 35.762 54.8626 35.8872C54.6408 36.5039 54.3996 37.1206 54.1488 37.7276C53.9945 38.0938 53.7534 38.1516 53.4255 37.9011C53.1168 37.6698 52.8178 37.4289 52.4899 37.2266C51.8147 36.8026 51.0816 36.6774 50.3293 36.9953C49.9242 37.1688 49.8085 37.0531 49.847 36.6388C49.8663 36.4365 49.847 36.2245 49.847 36.0125C49.8663 35.3187 49.8567 34.6346 49.4998 33.9987C49.1526 33.3724 48.6317 33.0351 47.918 32.9677C47.3296 32.9195 46.7316 32.8713 46.1432 32.7942C45.6224 32.7268 45.5838 32.6401 45.8925 32.1968C46.558 31.2333 47.2428 30.289 47.9276 29.3254C48.4388 28.6413 48.9404 27.9572 49.4226 27.2538ZM55.4027 40.3003C55.3642 43.4801 54.4768 46.4093 52.8081 49.1072C50.8502 52.2773 48.1302 54.5706 44.7157 56.0641C43.7705 56.4784 41.7836 55.881 41.2338 55.0138C40.983 54.6188 41.0505 54.2526 41.3013 53.8961C41.8607 53.0867 42.4009 52.2677 42.7192 51.333C42.9796 50.5718 43.1821 49.7914 43.2207 48.9916C43.2689 47.9702 42.6902 47.1801 41.7064 46.8621C40.6261 46.5153 39.6037 46.8043 38.591 47.1127C37.4046 47.4692 36.2954 48.0377 35.0801 48.3075C34.9354 48.3364 34.7811 48.4424 34.5689 48.3075C34.8293 48.0377 35.0801 47.7775 35.3308 47.5174C37.0574 45.6577 35.7649 43.191 34.1348 42.661C33.6236 42.4972 33.0835 42.5261 32.5626 42.4298C31.9936 42.3238 31.4341 42.1889 30.9036 41.9287C30.6818 41.8227 30.4985 41.6782 30.3346 41.4951C30.2092 41.3602 30.1127 41.1868 30.2092 41.0134C30.3153 40.811 30.5082 40.9555 30.6432 40.9941C31.3763 41.1868 32.119 41.3024 32.8809 41.2832C34.7907 41.235 36.1314 39.6258 35.842 37.7469C35.6877 36.7352 35.2344 35.8583 34.6943 35.02C34.3953 34.5575 34.0962 34.1047 33.8648 33.6132C33.4693 32.746 33.585 32.1775 34.3084 31.5609C35.5623 30.4913 37.0188 29.7879 38.5524 29.2387C39.4301 28.9207 40.2789 28.5546 41.0023 27.9379C42.1694 26.9454 42.4877 25.5386 41.8125 24.1608C41.6292 23.785 41.3785 23.4477 41.1663 23.0912C41.1084 22.9852 40.9541 22.8889 41.0698 22.754C41.147 22.6576 41.282 22.7251 41.3881 22.7443C42.8253 23.043 44.2142 23.5055 45.5259 24.1511C46.1915 24.4787 46.8281 24.8545 47.455 25.2399C47.8119 25.4616 47.8601 25.6446 47.5997 25.9915C46.5001 27.4947 45.4295 29.0171 44.3492 30.5395C43.9538 31.0984 43.5486 31.6669 43.3943 32.3606C43.1243 33.6132 43.7319 34.6057 44.9858 34.8948C45.7092 35.0586 46.4422 35.1453 47.1849 35.1838C47.5129 35.2031 47.6286 35.3187 47.6383 35.6463C47.6576 36.4268 47.6286 37.1977 47.3585 37.93C46.9149 39.1441 47.8794 39.8571 48.7764 39.9245C49.4516 39.9727 50.0592 39.7704 50.5897 39.3849C51.0141 39.0766 51.371 39.1055 51.7472 39.4428C51.9883 39.6547 52.2584 39.8378 52.5381 40.0016C53.329 40.4738 54.1585 40.5123 54.9591 40.0402C55.4027 39.7511 55.4027 39.9727 55.4027 40.3003Z" fill="white"/>
<path d="M93.804 37.576C93.804 38.056 93.768 38.512 93.696 38.944C93.648 39.376 93.516 39.82 93.3 40.276C93.108 40.708 92.832 41.176 92.472 41.68C92.112 42.184 91.644 42.76 91.068 43.408C90.372 44.176 89.556 44.86 88.62 45.46C87.684 46.06 86.64 46.36 85.488 46.36C84.768 46.36 84.048 46.24 83.328 46C82.632 45.76 82.008 45.4 81.456 44.92C80.928 44.44 80.496 43.84 80.16 43.12C79.824 42.4 79.656 41.56 79.656 40.6C79.656 39.064 79.944 37.456 80.52 35.776C81.096 34.072 81.9 32.248 82.932 30.304C83.604 29.032 84.228 27.916 84.804 26.956C85.38 25.972 85.944 25.156 86.496 24.508C87.048 23.836 87.6 23.332 88.152 22.996C88.704 22.66 89.292 22.492 89.916 22.492C90.396 22.492 90.804 22.588 91.14 22.78C91.5 22.948 91.68 23.296 91.68 23.824C91.68 23.992 91.644 24.148 91.572 24.292C91.5 24.412 91.392 24.472 91.248 24.472C91.056 24.472 90.912 24.424 90.816 24.328C90.744 24.208 90.516 24.148 90.132 24.148C89.484 24.148 88.848 24.448 88.224 25.048C87.6 25.648 87.012 26.344 86.46 27.136C85.932 27.904 85.464 28.672 85.056 29.44C84.672 30.208 84.396 30.772 84.228 31.132C83.94 31.732 83.616 32.44 83.256 33.256C82.92 34.072 82.596 34.912 82.284 35.776C81.972 36.64 81.708 37.48 81.492 38.296C81.276 39.088 81.168 39.748 81.168 40.276C81.168 40.948 81.276 41.548 81.492 42.076C81.732 42.58 82.044 43.012 82.428 43.372C82.812 43.732 83.256 44.008 83.76 44.2C84.288 44.368 84.84 44.452 85.416 44.452C86.208 44.452 87.012 44.26 87.828 43.876C88.668 43.492 89.412 42.988 90.06 42.364C90.732 41.74 91.272 41.02 91.68 40.204C92.112 39.388 92.328 38.56 92.328 37.72C92.328 36.88 92.112 36.184 91.68 35.632C91.248 35.08 90.768 34.804 90.24 34.804C89.904 34.804 89.664 34.864 89.52 34.984C89.4 35.08 89.28 35.212 89.16 35.38C88.992 35.644 88.836 35.86 88.692 36.028C88.548 36.196 88.296 36.34 87.936 36.46C87.36 36.652 86.904 36.796 86.568 36.892C86.256 36.964 86.028 37.024 85.884 37.072L85.596 37.144C85.452 37.144 85.248 37.048 84.984 36.856C84.744 36.64 84.624 36.472 84.624 36.352C84.624 35.92 84.876 35.512 85.38 35.128C85.908 34.72 86.496 34.36 87.144 34.048C87.792 33.712 88.416 33.448 89.016 33.256C89.616 33.064 89.988 32.968 90.132 32.968C90.852 32.968 91.44 33.112 91.896 33.4C92.376 33.688 92.748 34.06 93.012 34.516C93.3 34.972 93.504 35.476 93.624 36.028C93.744 36.556 93.804 37.072 93.804 37.576ZM102.794 38.224C102.794 38.752 102.722 39.256 102.578 39.736C102.434 40.216 102.242 40.636 102.002 40.996C101.762 41.356 101.474 41.644 101.138 41.86C100.826 42.052 100.478 42.148 100.094 42.148C99.4222 42.148 98.8942 41.956 98.5102 41.572C98.1262 41.188 97.8262 40.744 97.6102 40.24C97.4182 39.736 97.2862 39.232 97.2142 38.728C97.1662 38.2 97.1422 37.804 97.1422 37.54C97.1422 37.108 97.2022 36.628 97.3222 36.1C97.4662 35.548 97.6462 35.044 97.8622 34.588C98.1022 34.132 98.3662 33.748 98.6542 33.436C98.9422 33.124 99.2422 32.968 99.5542 32.968C99.6262 32.968 99.7342 32.992 99.8782 33.04C100.046 33.088 100.214 33.16 100.382 33.256C100.55 33.352 100.694 33.472 100.814 33.616C100.958 33.76 101.054 33.928 101.102 34.12C101.366 34.144 101.63 34.24 101.894 34.408C102.158 34.576 102.302 34.708 102.326 34.804C102.518 35.428 102.638 36.052 102.686 36.676C102.758 37.3 102.794 37.816 102.794 38.224ZM101.174 37.576C101.174 37.216 101.138 36.844 101.066 36.46C100.994 36.052 100.85 35.644 100.634 35.236C100.586 35.26 100.526 35.272 100.454 35.272C100.358 35.272 100.274 35.26 100.202 35.236C100.154 35.212 100.106 35.2 100.058 35.2C99.7702 35.2 99.5422 35.284 99.3742 35.452C99.2062 35.596 99.0742 35.8 98.9782 36.064C98.9062 36.304 98.8582 36.568 98.8342 36.856C98.8102 37.144 98.7982 37.42 98.7982 37.684C98.7982 37.948 98.8102 38.248 98.8342 38.584C98.8582 38.896 98.9062 39.196 98.9782 39.484C99.0742 39.772 99.1942 40.024 99.3382 40.24C99.4822 40.432 99.6742 40.528 99.9142 40.528C100.154 40.528 100.358 40.408 100.526 40.168C100.694 39.904 100.826 39.604 100.922 39.268C101.018 38.932 101.078 38.608 101.102 38.296C101.15 37.96 101.174 37.72 101.174 37.576ZM118.284 40.024C118.284 40.24 118.14 40.468 117.852 40.708C117.564 40.948 117.228 41.176 116.844 41.392C116.46 41.584 116.064 41.752 115.656 41.896C115.272 42.04 114.984 42.112 114.792 42.112C114.576 42.112 114.336 42.052 114.072 41.932C113.832 41.812 113.592 41.668 113.352 41.5C113.136 41.332 112.944 41.176 112.776 41.032C112.608 40.888 112.5 40.792 112.452 40.744C112.38 40.816 112.272 40.96 112.128 41.176C111.984 41.392 111.804 41.632 111.588 41.896C111.396 42.136 111.18 42.352 110.94 42.544C110.724 42.736 110.496 42.832 110.256 42.832C109.632 42.832 109.092 42.496 108.636 41.824C108.18 41.152 107.796 40.384 107.484 39.52C107.196 38.656 106.968 37.828 106.8 37.036C106.656 36.22 106.584 35.668 106.584 35.38C106.584 35.212 106.668 35.08 106.836 34.984C107.028 34.864 107.172 34.804 107.268 34.804C107.604 34.804 107.832 34.924 107.952 35.164C108.072 35.38 108.132 35.62 108.132 35.884C108.132 36.1 108.192 36.484 108.312 37.036C108.456 37.588 108.624 38.152 108.816 38.728C109.008 39.304 109.212 39.82 109.428 40.276C109.644 40.708 109.836 40.924 110.004 40.924C110.316 40.924 110.58 40.732 110.796 40.348C111.036 39.94 111.228 39.484 111.372 38.98C111.516 38.452 111.624 37.96 111.696 37.504C111.768 37.024 111.804 36.712 111.804 36.568C111.804 36.544 111.804 36.472 111.804 36.352C111.828 36.208 111.852 36.064 111.876 35.92C111.9 35.776 111.912 35.644 111.912 35.524C111.936 35.404 111.948 35.32 111.948 35.272C111.948 35.104 111.912 34.996 111.84 34.948C111.768 34.876 111.732 34.744 111.732 34.552C111.732 34.408 111.804 34.276 111.948 34.156C112.092 34.012 112.404 33.94 112.884 33.94C113.076 33.94 113.22 34 113.316 34.12C113.436 34.216 113.52 34.336 113.568 34.48C113.616 34.624 113.64 34.768 113.64 34.912C113.664 35.032 113.676 35.116 113.676 35.164C113.676 35.188 113.664 35.356 113.64 35.668C113.616 35.98 113.592 36.328 113.568 36.712C113.568 37.072 113.556 37.42 113.532 37.756C113.508 38.092 113.496 38.296 113.496 38.368C113.496 38.44 113.532 38.584 113.604 38.8C113.676 39.016 113.76 39.244 113.856 39.484C113.976 39.7 114.108 39.904 114.252 40.096C114.396 40.264 114.552 40.348 114.72 40.348C115.008 40.348 115.272 40.312 115.512 40.24C115.776 40.144 116.016 40.048 116.232 39.952C116.472 39.832 116.688 39.736 116.88 39.664C117.072 39.568 117.252 39.52 117.42 39.52C117.636 39.52 117.828 39.568 117.996 39.664C118.188 39.76 118.284 39.88 118.284 40.024ZM128.225 35.02C128.225 35.188 128.153 35.332 128.009 35.452C127.865 35.548 127.697 35.632 127.505 35.704C127.313 35.776 127.121 35.836 126.929 35.884C126.737 35.908 126.581 35.92 126.461 35.92C126.101 35.92 125.861 35.896 125.741 35.848C125.621 35.8 125.525 35.776 125.453 35.776C124.853 35.776 124.373 35.824 124.013 35.92C123.653 36.016 123.365 36.172 123.149 36.388C122.957 36.604 122.825 36.88 122.753 37.216C122.705 37.528 122.681 37.912 122.681 38.368C122.681 39.136 122.705 39.748 122.753 40.204C122.825 40.66 122.885 41.032 122.933 41.32C123.005 41.608 123.065 41.836 123.113 42.004C123.185 42.148 123.221 42.292 123.221 42.436C123.221 42.628 123.113 42.832 122.897 43.048C122.705 43.264 122.525 43.372 122.357 43.372C122.069 43.372 121.805 43.12 121.565 42.616C121.349 42.088 121.157 41.476 120.989 40.78C120.845 40.06 120.725 39.352 120.629 38.656C120.533 37.96 120.485 37.432 120.485 37.072C120.485 36.664 120.521 36.28 120.593 35.92C120.665 35.536 120.761 35.212 120.881 34.948C121.001 34.66 121.133 34.432 121.277 34.264C121.421 34.096 121.565 34.012 121.709 34.012C121.829 34.012 121.925 34.06 121.997 34.156C122.069 34.228 122.129 34.324 122.177 34.444C122.225 34.54 122.273 34.636 122.321 34.732C122.393 34.804 122.477 34.84 122.573 34.84C122.789 34.84 123.137 34.732 123.617 34.516C124.097 34.3 124.685 34.192 125.381 34.192C126.029 34.192 126.509 34.216 126.821 34.264C127.157 34.288 127.481 34.36 127.793 34.48C127.865 34.504 127.949 34.564 128.045 34.66C128.165 34.732 128.225 34.852 128.225 35.02ZM147.104 42.616C147.104 42.808 147.044 42.976 146.924 43.12C146.804 43.264 146.66 43.384 146.492 43.48C146.324 43.552 146.144 43.612 145.952 43.66C145.784 43.708 145.64 43.732 145.52 43.732C145.016 43.732 144.584 43.468 144.224 42.94C143.864 42.388 143.564 41.788 143.324 41.14C143.084 40.468 142.904 39.844 142.784 39.268C142.688 38.692 142.64 38.38 142.64 38.332C142.496 38.596 142.34 39.04 142.172 39.664C142.028 40.288 141.848 40.924 141.632 41.572C141.416 42.196 141.14 42.76 140.804 43.264C140.492 43.744 140.084 43.984 139.58 43.984C139.34 43.984 139.112 43.84 138.896 43.552C138.68 43.264 138.476 42.892 138.284 42.436C138.092 41.98 137.9 41.464 137.708 40.888C137.54 40.312 137.36 39.748 137.168 39.196C137 38.644 136.832 38.128 136.664 37.648C136.496 37.144 136.328 36.748 136.16 36.46C136.016 36.82 135.884 37.312 135.764 37.936C135.668 38.56 135.584 39.22 135.512 39.916C135.44 40.588 135.38 41.26 135.332 41.932C135.284 42.604 135.26 43.192 135.26 43.696C135.26 44.032 135.164 44.272 134.972 44.416C134.804 44.56 134.624 44.632 134.432 44.632C134.168 44.632 133.904 44.464 133.64 44.128C133.376 43.768 133.112 43.312 132.848 42.76C132.584 42.208 132.332 41.584 132.092 40.888C131.876 40.192 131.672 39.496 131.48 38.8C131.312 38.104 131.18 37.444 131.084 36.82C130.988 36.172 130.94 35.632 130.94 35.2C130.94 34.888 130.952 34.6 130.976 34.336C131 34.12 131.012 33.916 131.012 33.724C131.036 33.532 131.048 33.424 131.048 33.4C131.048 33.328 131.024 33.28 130.976 33.256C130.952 33.232 130.94 33.172 130.94 33.076C130.94 33.004 131.024 32.896 131.192 32.752C131.384 32.584 131.576 32.5 131.768 32.5C132.104 32.5 132.32 32.572 132.416 32.716C132.536 32.86 132.596 33.028 132.596 33.22C132.596 33.292 132.584 33.4 132.56 33.544C132.56 33.688 132.56 34.012 132.56 34.516C132.56 34.852 132.62 35.356 132.74 36.028C132.86 36.7 133.004 37.384 133.172 38.08C133.34 38.776 133.508 39.424 133.676 40.024C133.868 40.6 134.024 40.96 134.144 41.104C134.192 41.008 134.216 40.9 134.216 40.78C134.24 40.636 134.264 40.528 134.288 40.456L134.684 37.504C134.78 36.76 134.972 35.98 135.26 35.164C135.572 34.324 135.896 33.676 136.232 33.22C136.352 33.028 136.484 32.932 136.628 32.932C136.772 32.932 136.904 33.04 137.024 33.256C137.432 33.928 137.732 34.6 137.924 35.272C138.14 35.92 138.32 36.568 138.464 37.216C138.632 37.84 138.812 38.476 139.004 39.124C139.22 39.748 139.544 40.384 139.976 41.032C140.168 40.72 140.408 40.216 140.696 39.52C140.984 38.8 141.272 38.08 141.56 37.36C141.872 36.64 142.16 36.016 142.424 35.488C142.688 34.936 142.892 34.66 143.036 34.66C143.108 34.66 143.228 34.672 143.396 34.696C143.564 34.72 143.684 34.732 143.756 34.732C143.972 34.732 144.152 34.984 144.296 35.488C144.44 35.968 144.56 36.544 144.656 37.216C144.776 37.864 144.884 38.524 144.98 39.196C145.1 39.844 145.232 40.336 145.376 40.672C145.472 40.912 145.616 41.14 145.808 41.356C146 41.572 146.192 41.776 146.384 41.968C146.624 42.184 146.864 42.4 147.104 42.616ZM160.007 42.22C160.031 42.268 160.043 42.34 160.043 42.436C160.043 42.58 159.935 42.796 159.719 43.084C159.647 43.18 159.491 43.336 159.251 43.552C159.011 43.768 158.687 43.984 158.279 44.2C157.871 44.416 157.367 44.608 156.767 44.776C156.191 44.944 155.507 45.028 154.715 45.028C154.163 45.028 153.623 44.908 153.095 44.668C152.567 44.404 152.099 44.032 151.691 43.552C151.283 43.048 150.947 42.436 150.683 41.716C150.419 40.972 150.287 40.108 150.287 39.124C150.287 38.188 150.407 37.312 150.647 36.496C150.887 35.68 151.187 34.96 151.547 34.336C151.931 33.712 152.351 33.22 152.807 32.86C153.263 32.5 153.707 32.32 154.139 32.32C154.523 32.32 154.907 32.404 155.291 32.572C155.699 32.716 156.059 32.908 156.371 33.148C156.707 33.388 156.971 33.664 157.163 33.976C157.355 34.264 157.451 34.564 157.451 34.876C157.451 35.236 157.283 35.608 156.947 35.992C156.635 36.376 156.251 36.736 155.795 37.072C155.339 37.384 154.883 37.648 154.427 37.864C153.971 38.056 153.611 38.152 153.347 38.152C153.203 38.152 153.071 38.092 152.951 37.972C152.855 37.828 152.807 37.66 152.807 37.468C152.807 37.132 152.951 36.868 153.239 36.676C153.551 36.484 153.887 36.316 154.247 36.172C154.607 36.004 154.931 35.812 155.219 35.596C155.531 35.38 155.687 35.08 155.687 34.696C155.687 34.648 155.627 34.528 155.507 34.336C155.387 34.144 155.063 34.048 154.535 34.048C154.295 34.048 154.019 34.192 153.707 34.48C153.395 34.744 153.095 35.116 152.807 35.596C152.519 36.052 152.279 36.604 152.087 37.252C151.895 37.876 151.799 38.56 151.799 39.304C151.799 39.928 151.907 40.492 152.123 40.996C152.363 41.5 152.663 41.932 153.023 42.292C153.383 42.628 153.803 42.892 154.283 43.084C154.763 43.276 155.255 43.372 155.759 43.372C156.119 43.372 156.503 43.3 156.911 43.156C157.343 42.988 157.739 42.82 158.099 42.652C158.483 42.46 158.807 42.292 159.071 42.148C159.359 41.98 159.539 41.896 159.611 41.896C159.683 41.896 159.755 41.932 159.827 42.004C159.923 42.076 159.983 42.148 160.007 42.22ZM172.089 29.728C171.777 30.088 171.333 30.448 170.757 30.808C170.181 31.144 169.605 31.456 169.029 31.744C168.453 32.032 167.949 32.284 167.517 32.5C167.085 32.692 166.869 32.824 166.869 32.896C166.869 32.968 166.917 33.184 167.013 33.544C167.109 33.904 167.217 34.336 167.337 34.84C167.481 35.32 167.625 35.824 167.769 36.352C167.913 36.88 168.033 37.348 168.129 37.756C168.177 37.996 168.237 38.308 168.309 38.692C168.381 39.076 168.441 39.46 168.489 39.844C168.561 40.228 168.621 40.576 168.669 40.888C168.717 41.176 168.741 41.332 168.741 41.356C168.741 41.716 168.681 42.088 168.561 42.472C168.441 42.856 168.249 43.048 167.985 43.048C167.841 43.048 167.709 42.988 167.589 42.868C167.469 42.748 167.361 42.616 167.265 42.472C167.169 42.304 167.097 42.148 167.049 42.004C167.001 41.86 166.977 41.752 166.977 41.68C166.977 41.632 166.977 41.56 166.977 41.464C167.001 41.368 167.013 41.26 167.013 41.14C167.013 40.684 166.941 40.024 166.797 39.16C166.749 38.896 166.653 38.488 166.509 37.936C166.365 37.384 166.221 36.82 166.077 36.244C165.909 35.572 165.717 34.84 165.501 34.048C165.405 33.712 165.345 33.544 165.321 33.544C165.153 33.544 164.865 33.652 164.457 33.868C164.073 34.06 163.629 34.312 163.125 34.624C162.621 34.912 162.093 35.236 161.541 35.596C160.989 35.932 160.473 36.256 159.993 36.568C159.513 36.856 159.105 37.108 158.769 37.324C158.409 37.516 158.193 37.612 158.121 37.612C157.809 37.612 157.557 37.504 157.365 37.288C157.173 37.072 157.077 36.832 157.077 36.568C157.077 36.424 157.281 36.22 157.689 35.956C158.073 35.668 158.565 35.356 159.165 35.02C159.741 34.684 160.377 34.336 161.073 33.976C161.745 33.616 162.369 33.292 162.945 33.004C163.545 32.716 164.037 32.476 164.421 32.284C164.829 32.092 165.033 31.996 165.033 31.996C164.817 30.892 164.637 29.908 164.493 29.044C164.373 28.3 164.253 27.616 164.133 26.992C164.037 26.368 163.989 26.032 163.989 25.984C163.989 25.672 164.049 25.444 164.169 25.3C164.313 25.132 164.469 25.048 164.637 25.048C164.901 25.048 165.069 25.228 165.141 25.588C165.405 26.884 165.645 28.036 165.861 29.044C166.101 30.052 166.329 30.868 166.545 31.492C166.761 31.444 167.133 31.312 167.661 31.096C168.189 30.856 168.741 30.604 169.317 30.34C169.893 30.076 170.409 29.848 170.865 29.656C171.345 29.44 171.621 29.332 171.693 29.332C171.837 29.332 171.921 29.38 171.945 29.476C171.993 29.572 172.041 29.656 172.089 29.728ZM182.145 41.248C182.145 41.656 182.001 42.016 181.713 42.328C181.449 42.616 181.101 42.868 180.669 43.084C180.261 43.276 179.805 43.432 179.301 43.552C178.797 43.672 178.317 43.768 177.861 43.84C177.405 43.888 176.997 43.924 176.637 43.948C176.301 43.948 176.085 43.948 175.989 43.948C175.461 43.948 175.053 43.864 174.765 43.696C174.477 43.528 174.333 43.228 174.333 42.796C174.333 42.652 174.345 42.532 174.369 42.436C174.393 42.316 174.489 42.256 174.657 42.256C174.729 42.256 174.849 42.28 175.017 42.328C175.185 42.352 175.317 42.364 175.413 42.364C175.509 42.364 175.809 42.352 176.313 42.328C176.841 42.28 177.393 42.208 177.969 42.112C178.569 42.016 179.097 41.884 179.553 41.716C180.033 41.524 180.273 41.284 180.273 40.996C180.273 40.948 180.021 40.804 179.517 40.564C179.037 40.3 178.305 39.868 177.321 39.268C176.553 38.788 176.013 38.308 175.701 37.828C175.389 37.324 175.233 36.652 175.233 35.812C175.233 35.284 175.341 34.852 175.557 34.516C175.797 34.18 176.109 33.916 176.493 33.724C176.901 33.532 177.357 33.4 177.861 33.328C178.389 33.232 178.941 33.184 179.517 33.184C179.565 33.184 179.709 33.208 179.949 33.256C180.213 33.304 180.489 33.388 180.777 33.508C181.065 33.604 181.317 33.736 181.533 33.904C181.773 34.048 181.893 34.216 181.893 34.408C181.893 34.456 181.845 34.528 181.749 34.624C181.677 34.72 181.545 34.9 181.353 35.164C181.281 35.14 181.149 35.104 180.957 35.056C180.789 35.008 180.585 34.96 180.345 34.912C180.129 34.84 179.901 34.792 179.661 34.768C179.421 34.72 179.229 34.696 179.085 34.696C178.461 34.696 177.957 34.816 177.573 35.056C177.189 35.272 176.997 35.704 176.997 36.352C176.997 36.664 177.117 36.952 177.357 37.216C177.621 37.48 177.945 37.732 178.329 37.972C178.713 38.188 179.121 38.416 179.553 38.656C180.009 38.872 180.429 39.112 180.813 39.376C181.197 39.64 181.509 39.928 181.749 40.24C182.013 40.528 182.145 40.864 182.145 41.248ZM210.319 40.204C210.319 40.324 210.259 40.444 210.139 40.564C210.043 40.66 209.983 40.768 209.959 40.888C209.959 41.152 210.007 41.404 210.103 41.644C210.223 41.884 210.283 42.172 210.283 42.508C210.283 42.82 210.187 42.976 209.995 42.976C209.755 42.976 209.575 43.012 209.455 43.084C209.359 43.132 209.179 43.18 208.915 43.228C208.771 43.228 208.615 43.096 208.447 42.832C208.351 42.712 208.267 42.568 208.195 42.4C208.195 42.376 208.123 42.424 207.979 42.544C207.859 42.664 207.643 42.808 207.331 42.976C207.043 43.12 206.635 43.264 206.107 43.408C205.603 43.528 204.955 43.588 204.163 43.588C203.491 43.588 202.903 43.444 202.399 43.156C201.895 42.844 201.475 42.448 201.139 41.968C200.827 41.488 200.587 40.948 200.419 40.348C200.275 39.724 200.203 39.1 200.203 38.476C200.203 37.9 200.263 37.36 200.383 36.856C200.527 36.328 200.719 35.872 200.959 35.488C201.199 35.08 201.499 34.756 201.859 34.516C202.219 34.276 202.639 34.156 203.119 34.156C203.575 34.156 204.031 34.3 204.487 34.588C204.943 34.876 205.351 35.188 205.711 35.524C206.071 35.86 206.359 36.172 206.575 36.46C206.815 36.724 206.935 36.856 206.935 36.856C206.599 34.984 206.299 33.292 206.035 31.78C205.915 31.132 205.795 30.496 205.675 29.872C205.579 29.224 205.483 28.648 205.387 28.144C205.291 27.64 205.207 27.22 205.135 26.884C205.087 26.524 205.063 26.308 205.063 26.236C205.039 26.092 205.015 25.84 204.991 25.48C204.967 25.096 204.943 24.7 204.919 24.292C204.895 23.884 204.871 23.512 204.847 23.176C204.823 22.84 204.799 22.624 204.775 22.528C204.703 22.288 204.607 21.988 204.487 21.628C204.391 21.268 204.343 21.064 204.343 21.016C204.343 20.896 204.403 20.752 204.523 20.584C204.643 20.392 204.799 20.296 204.991 20.296C205.135 20.296 205.267 20.308 205.387 20.332C205.507 20.356 205.615 20.428 205.711 20.548C205.807 20.668 205.891 20.86 205.963 21.124C206.059 21.364 206.143 21.712 206.215 22.168C206.239 22.408 206.311 22.864 206.431 23.536C206.551 24.208 206.671 24.94 206.791 25.732C206.911 26.524 207.031 27.28 207.151 28C207.271 28.72 207.355 29.248 207.403 29.584C207.523 30.496 207.679 31.492 207.871 32.572C208.087 33.628 208.303 34.648 208.519 35.632C208.735 36.616 208.951 37.492 209.167 38.26C209.383 39.004 209.575 39.508 209.743 39.772C209.791 39.868 209.887 39.94 210.031 39.988C210.175 40.012 210.271 40.084 210.319 40.204ZM207.655 40.924C207.631 40.852 207.475 40.552 207.187 40.024C206.923 39.472 206.575 38.884 206.143 38.26C205.735 37.612 205.267 37.036 204.739 36.532C204.235 36.028 203.743 35.776 203.263 35.776C202.855 35.776 202.519 36.088 202.255 36.712C202.015 37.336 201.895 38.056 201.895 38.872C201.895 39.784 202.159 40.516 202.687 41.068C203.239 41.62 203.851 41.896 204.523 41.896C205.099 41.896 205.699 41.8 206.323 41.608C206.947 41.416 207.391 41.188 207.655 40.924ZM224.948 40.024C224.948 40.24 224.804 40.468 224.516 40.708C224.228 40.948 223.892 41.176 223.508 41.392C223.124 41.584 222.728 41.752 222.32 41.896C221.936 42.04 221.648 42.112 221.456 42.112C221.24 42.112 221 42.052 220.736 41.932C220.496 41.812 220.256 41.668 220.016 41.5C219.8 41.332 219.608 41.176 219.44 41.032C219.272 40.888 219.164 40.792 219.116 40.744C219.044 40.816 218.936 40.96 218.792 41.176C218.648 41.392 218.468 41.632 218.252 41.896C218.06 42.136 217.844 42.352 217.604 42.544C217.388 42.736 217.16 42.832 216.92 42.832C216.296 42.832 215.756 42.496 215.3 41.824C214.844 41.152 214.46 40.384 214.148 39.52C213.86 38.656 213.632 37.828 213.464 37.036C213.32 36.22 213.248 35.668 213.248 35.38C213.248 35.212 213.332 35.08 213.5 34.984C213.692 34.864 213.836 34.804 213.932 34.804C214.268 34.804 214.496 34.924 214.616 35.164C214.736 35.38 214.796 35.62 214.796 35.884C214.796 36.1 214.856 36.484 214.976 37.036C215.12 37.588 215.288 38.152 215.48 38.728C215.672 39.304 215.876 39.82 216.092 40.276C216.308 40.708 216.5 40.924 216.668 40.924C216.98 40.924 217.244 40.732 217.46 40.348C217.7 39.94 217.892 39.484 218.036 38.98C218.18 38.452 218.288 37.96 218.36 37.504C218.432 37.024 218.468 36.712 218.468 36.568C218.468 36.544 218.468 36.472 218.468 36.352C218.492 36.208 218.516 36.064 218.54 35.92C218.564 35.776 218.576 35.644 218.576 35.524C218.6 35.404 218.612 35.32 218.612 35.272C218.612 35.104 218.576 34.996 218.504 34.948C218.432 34.876 218.396 34.744 218.396 34.552C218.396 34.408 218.468 34.276 218.612 34.156C218.756 34.012 219.068 33.94 219.548 33.94C219.74 33.94 219.884 34 219.98 34.12C220.1 34.216 220.184 34.336 220.232 34.48C220.28 34.624 220.304 34.768 220.304 34.912C220.328 35.032 220.34 35.116 220.34 35.164C220.34 35.188 220.328 35.356 220.304 35.668C220.28 35.98 220.256 36.328 220.232 36.712C220.232 37.072 220.22 37.42 220.196 37.756C220.172 38.092 220.16 38.296 220.16 38.368C220.16 38.44 220.196 38.584 220.268 38.8C220.34 39.016 220.424 39.244 220.52 39.484C220.64 39.7 220.772 39.904 220.916 40.096C221.06 40.264 221.216 40.348 221.384 40.348C221.672 40.348 221.936 40.312 222.176 40.24C222.44 40.144 222.68 40.048 222.896 39.952C223.136 39.832 223.352 39.736 223.544 39.664C223.736 39.568 223.916 39.52 224.084 39.52C224.3 39.52 224.492 39.568 224.66 39.664C224.852 39.76 224.948 39.88 224.948 40.024ZM257.283 42.616C257.283 42.808 257.223 42.976 257.103 43.12C256.983 43.264 256.839 43.384 256.671 43.48C256.503 43.552 256.323 43.612 256.131 43.66C255.963 43.708 255.819 43.732 255.699 43.732C255.195 43.732 254.763 43.468 254.403 42.94C254.043 42.388 253.743 41.788 253.503 41.14C253.263 40.468 253.083 39.844 252.963 39.268C252.867 38.692 252.819 38.38 252.819 38.332C252.675 38.596 252.519 39.04 252.351 39.664C252.207 40.288 252.027 40.924 251.811 41.572C251.595 42.196 251.319 42.76 250.983 43.264C250.671 43.744 250.263 43.984 249.759 43.984C249.519 43.984 249.291 43.84 249.075 43.552C248.859 43.264 248.655 42.892 248.463 42.436C248.271 41.98 248.079 41.464 247.887 40.888C247.719 40.312 247.539 39.748 247.347 39.196C247.179 38.644 247.011 38.128 246.843 37.648C246.675 37.144 246.507 36.748 246.339 36.46C246.195 36.82 246.063 37.312 245.943 37.936C245.847 38.56 245.763 39.22 245.691 39.916C245.619 40.588 245.559 41.26 245.511 41.932C245.463 42.604 245.439 43.192 245.439 43.696C245.439 44.032 245.343 44.272 245.151 44.416C244.983 44.56 244.803 44.632 244.611 44.632C244.347 44.632 244.083 44.464 243.819 44.128C243.555 43.768 243.291 43.312 243.027 42.76C242.763 42.208 242.511 41.584 242.271 40.888C242.055 40.192 241.851 39.496 241.659 38.8C241.491 38.104 241.359 37.444 241.263 36.82C241.167 36.172 241.119 35.632 241.119 35.2C241.119 34.888 241.131 34.6 241.155 34.336C241.179 34.12 241.191 33.916 241.191 33.724C241.215 33.532 241.227 33.424 241.227 33.4C241.227 33.328 241.203 33.28 241.155 33.256C241.131 33.232 241.119 33.172 241.119 33.076C241.119 33.004 241.203 32.896 241.371 32.752C241.563 32.584 241.755 32.5 241.947 32.5C242.283 32.5 242.499 32.572 242.595 32.716C242.715 32.86 242.775 33.028 242.775 33.22C242.775 33.292 242.763 33.4 242.739 33.544C242.739 33.688 242.739 34.012 242.739 34.516C242.739 34.852 242.799 35.356 242.919 36.028C243.039 36.7 243.183 37.384 243.351 38.08C243.519 38.776 243.687 39.424 243.855 40.024C244.047 40.6 244.203 40.96 244.323 41.104C244.371 41.008 244.395 40.9 244.395 40.78C244.419 40.636 244.443 40.528 244.467 40.456L244.863 37.504C244.959 36.76 245.151 35.98 245.439 35.164C245.751 34.324 246.075 33.676 246.411 33.22C246.531 33.028 246.663 32.932 246.807 32.932C246.951 32.932 247.083 33.04 247.203 33.256C247.611 33.928 247.911 34.6 248.103 35.272C248.319 35.92 248.499 36.568 248.643 37.216C248.811 37.84 248.991 38.476 249.183 39.124C249.399 39.748 249.723 40.384 250.155 41.032C250.347 40.72 250.587 40.216 250.875 39.52C251.163 38.8 251.451 38.08 251.739 37.36C252.051 36.64 252.339 36.016 252.603 35.488C252.867 34.936 253.071 34.66 253.215 34.66C253.287 34.66 253.407 34.672 253.575 34.696C253.743 34.72 253.863 34.732 253.935 34.732C254.151 34.732 254.331 34.984 254.475 35.488C254.619 35.968 254.739 36.544 254.835 37.216C254.955 37.864 255.063 38.524 255.159 39.196C255.279 39.844 255.411 40.336 255.555 40.672C255.651 40.912 255.795 41.14 255.987 41.356C256.179 41.572 256.371 41.776 256.563 41.968C256.803 42.184 257.043 42.4 257.283 42.616ZM266.622 38.224C266.622 38.752 266.55 39.256 266.406 39.736C266.262 40.216 266.07 40.636 265.83 40.996C265.59 41.356 265.302 41.644 264.966 41.86C264.654 42.052 264.306 42.148 263.922 42.148C263.25 42.148 262.722 41.956 262.338 41.572C261.954 41.188 261.654 40.744 261.438 40.24C261.246 39.736 261.114 39.232 261.042 38.728C260.994 38.2 260.97 37.804 260.97 37.54C260.97 37.108 261.03 36.628 261.15 36.1C261.294 35.548 261.474 35.044 261.69 34.588C261.93 34.132 262.194 33.748 262.482 33.436C262.77 33.124 263.07 32.968 263.382 32.968C263.454 32.968 263.562 32.992 263.706 33.04C263.874 33.088 264.042 33.16 264.21 33.256C264.378 33.352 264.522 33.472 264.642 33.616C264.786 33.76 264.882 33.928 264.93 34.12C265.194 34.144 265.458 34.24 265.722 34.408C265.986 34.576 266.13 34.708 266.154 34.804C266.346 35.428 266.466 36.052 266.514 36.676C266.586 37.3 266.622 37.816 266.622 38.224ZM265.002 37.576C265.002 37.216 264.966 36.844 264.894 36.46C264.822 36.052 264.678 35.644 264.462 35.236C264.414 35.26 264.354 35.272 264.282 35.272C264.186 35.272 264.102 35.26 264.03 35.236C263.982 35.212 263.934 35.2 263.886 35.2C263.598 35.2 263.37 35.284 263.202 35.452C263.034 35.596 262.902 35.8 262.806 36.064C262.734 36.304 262.686 36.568 262.662 36.856C262.638 37.144 262.626 37.42 262.626 37.684C262.626 37.948 262.638 38.248 262.662 38.584C262.686 38.896 262.734 39.196 262.806 39.484C262.902 39.772 263.022 40.024 263.166 40.24C263.31 40.432 263.502 40.528 263.742 40.528C263.982 40.528 264.186 40.408 264.354 40.168C264.522 39.904 264.654 39.604 264.75 39.268C264.846 38.932 264.906 38.608 264.93 38.296C264.978 37.96 265.002 37.72 265.002 37.576ZM281.068 41.572C281.068 41.716 281.02 41.86 280.924 42.004C280.828 42.148 280.708 42.28 280.564 42.4C280.444 42.52 280.3 42.628 280.132 42.724C279.988 42.796 279.856 42.832 279.736 42.832C279.328 42.832 278.8 42.748 278.152 42.58C277.528 42.388 277.024 42.1 276.64 41.716C276.232 41.308 275.872 40.828 275.56 40.276C275.248 39.7 274.9 38.86 274.516 37.756C274.252 38.812 273.94 39.856 273.58 40.888C273.244 41.92 272.692 42.868 271.924 43.732C271.876 43.78 271.804 43.804 271.708 43.804C271.54 43.804 271.36 43.72 271.168 43.552C270.976 43.384 270.88 43.216 270.88 43.048C270.88 42.88 270.856 42.496 270.808 41.896C270.784 41.272 270.748 40.588 270.7 39.844C270.652 39.076 270.604 38.308 270.556 37.54C270.532 36.748 270.52 36.1 270.52 35.596C270.52 35.356 270.532 35.044 270.556 34.66C270.58 34.252 270.652 33.904 270.772 33.616C270.796 33.568 270.88 33.472 271.024 33.328C271.192 33.184 271.372 33.112 271.564 33.112C271.732 33.112 271.828 33.22 271.852 33.436C271.876 33.652 271.888 33.892 271.888 34.156V39.844C271.888 39.964 271.9 40.132 271.924 40.348C271.972 40.564 272.032 40.72 272.104 40.816C272.368 40.24 272.608 39.568 272.824 38.8C273.064 38.008 273.292 37.264 273.508 36.568C273.724 35.848 273.94 35.248 274.156 34.768C274.372 34.264 274.588 34.012 274.804 34.012C275.044 34.012 275.236 34.06 275.38 34.156C275.524 34.252 275.644 34.444 275.74 34.732C275.86 35.428 275.956 36.052 276.028 36.604C276.1 37.132 276.184 37.612 276.28 38.044C276.4 38.476 276.556 38.884 276.748 39.268C276.964 39.628 277.252 39.964 277.612 40.276C277.948 40.588 278.32 40.816 278.728 40.96C279.16 41.104 279.532 41.176 279.844 41.176C279.988 41.176 280.144 41.152 280.312 41.104C280.48 41.032 280.6 40.996 280.672 40.996C280.768 40.996 280.852 41.08 280.924 41.248C281.02 41.416 281.068 41.524 281.068 41.572ZM293.112 40.204C293.112 40.324 293.052 40.444 292.932 40.564C292.836 40.66 292.776 40.768 292.752 40.888C292.752 41.152 292.8 41.404 292.896 41.644C293.016 41.884 293.076 42.172 293.076 42.508C293.076 42.82 292.98 42.976 292.788 42.976C292.548 42.976 292.368 43.012 292.248 43.084C292.152 43.132 291.972 43.18 291.708 43.228C291.564 43.228 291.408 43.096 291.24 42.832C291.144 42.712 291.06 42.568 290.988 42.4C290.988 42.376 290.916 42.424 290.772 42.544C290.652 42.664 290.436 42.808 290.124 42.976C289.836 43.12 289.428 43.264 288.9 43.408C288.396 43.528 287.748 43.588 286.956 43.588C286.284 43.588 285.696 43.444 285.192 43.156C284.688 42.844 284.268 42.448 283.932 41.968C283.62 41.488 283.38 40.948 283.212 40.348C283.068 39.724 282.996 39.1 282.996 38.476C282.996 37.9 283.056 37.36 283.176 36.856C283.32 36.328 283.512 35.872 283.752 35.488C283.992 35.08 284.292 34.756 284.652 34.516C285.012 34.276 285.432 34.156 285.912 34.156C286.368 34.156 286.824 34.3 287.28 34.588C287.736 34.876 288.144 35.188 288.504 35.524C288.864 35.86 289.152 36.172 289.368 36.46C289.608 36.724 289.728 36.856 289.728 36.856C289.392 34.984 289.092 33.292 288.828 31.78C288.708 31.132 288.588 30.496 288.468 29.872C288.372 29.224 288.276 28.648 288.18 28.144C288.084 27.64 288 27.22 287.928 26.884C287.88 26.524 287.856 26.308 287.856 26.236C287.832 26.092 287.808 25.84 287.784 25.48C287.76 25.096 287.736 24.7 287.712 24.292C287.688 23.884 287.664 23.512 287.64 23.176C287.616 22.84 287.592 22.624 287.568 22.528C287.496 22.288 287.4 21.988 287.28 21.628C287.184 21.268 287.136 21.064 287.136 21.016C287.136 20.896 287.196 20.752 287.316 20.584C287.436 20.392 287.592 20.296 287.784 20.296C287.928 20.296 288.06 20.308 288.18 20.332C288.3 20.356 288.408 20.428 288.504 20.548C288.6 20.668 288.684 20.86 288.756 21.124C288.852 21.364 288.936 21.712 289.008 22.168C289.032 22.408 289.104 22.864 289.224 23.536C289.344 24.208 289.464 24.94 289.584 25.732C289.704 26.524 289.824 27.28 289.944 28C290.064 28.72 290.148 29.248 290.196 29.584C290.316 30.496 290.472 31.492 290.664 32.572C290.88 33.628 291.096 34.648 291.312 35.632C291.528 36.616 291.744 37.492 291.96 38.26C292.176 39.004 292.368 39.508 292.536 39.772C292.584 39.868 292.68 39.94 292.824 39.988C292.968 40.012 293.064 40.084 293.112 40.204ZM290.448 40.924C290.424 40.852 290.268 40.552 289.98 40.024C289.716 39.472 289.368 38.884 288.936 38.26C288.528 37.612 288.06 37.036 287.532 36.532C287.028 36.028 286.536 35.776 286.056 35.776C285.648 35.776 285.312 36.088 285.048 36.712C284.808 37.336 284.688 38.056 284.688 38.872C284.688 39.784 284.952 40.516 285.48 41.068C286.032 41.62 286.644 41.896 287.316 41.896C287.892 41.896 288.492 41.8 289.116 41.608C289.74 41.416 290.184 41.188 290.448 40.924ZM305.905 42.22C305.929 42.268 305.941 42.34 305.941 42.436C305.941 42.58 305.833 42.796 305.617 43.084C305.545 43.18 305.389 43.336 305.149 43.552C304.909 43.768 304.585 43.984 304.177 44.2C303.769 44.416 303.265 44.608 302.665 44.776C302.089 44.944 301.405 45.028 300.613 45.028C300.061 45.028 299.521 44.908 298.993 44.668C298.465 44.404 297.997 44.032 297.589 43.552C297.181 43.048 296.845 42.436 296.581 41.716C296.317 40.972 296.185 40.108 296.185 39.124C296.185 38.188 296.305 37.312 296.545 36.496C296.785 35.68 297.085 34.96 297.445 34.336C297.829 33.712 298.249 33.22 298.705 32.86C299.161 32.5 299.605 32.32 300.037 32.32C300.421 32.32 300.805 32.404 301.189 32.572C301.597 32.716 301.957 32.908 302.269 33.148C302.605 33.388 302.869 33.664 303.061 33.976C303.253 34.264 303.349 34.564 303.349 34.876C303.349 35.236 303.181 35.608 302.845 35.992C302.533 36.376 302.149 36.736 301.693 37.072C301.237 37.384 300.781 37.648 300.325 37.864C299.869 38.056 299.509 38.152 299.245 38.152C299.101 38.152 298.969 38.092 298.849 37.972C298.753 37.828 298.705 37.66 298.705 37.468C298.705 37.132 298.849 36.868 299.137 36.676C299.449 36.484 299.785 36.316 300.145 36.172C300.505 36.004 300.829 35.812 301.117 35.596C301.429 35.38 301.585 35.08 301.585 34.696C301.585 34.648 301.525 34.528 301.405 34.336C301.285 34.144 300.961 34.048 300.433 34.048C300.193 34.048 299.917 34.192 299.605 34.48C299.293 34.744 298.993 35.116 298.705 35.596C298.417 36.052 298.177 36.604 297.985 37.252C297.793 37.876 297.697 38.56 297.697 39.304C297.697 39.928 297.805 40.492 298.021 40.996C298.261 41.5 298.561 41.932 298.921 42.292C299.281 42.628 299.701 42.892 300.181 43.084C300.661 43.276 301.153 43.372 301.657 43.372C302.017 43.372 302.401 43.3 302.809 43.156C303.241 42.988 303.637 42.82 303.997 42.652C304.381 42.46 304.705 42.292 304.969 42.148C305.257 41.98 305.437 41.896 305.509 41.896C305.581 41.896 305.653 41.932 305.725 42.004C305.821 42.076 305.881 42.148 305.905 42.22Z" fill="white"/>
</svg>
